<mxfile host="app.diagrams.net" agent="Mozilla/5.0 (Macintosh; Intel Mac OS X 10_15_7) AppleWebKit/605.1.15 (KHTML, like Gecko) Version/17.5 Safari/605.1.15" version="24.7.5">
  <diagram name="페이지-1" id="WdVvNl2aft6thXMaYnHw">
    <mxGraphModel dx="937" dy="913" grid="1" gridSize="10" guides="1" tooltips="1" connect="1" arrows="1" fold="1" page="1" pageScale="1" pageWidth="827" pageHeight="1169" math="0" shadow="0">
      <root>
        <mxCell id="0" />
        <mxCell id="1" parent="0" />
        <mxCell id="4Mlx_Hhug_AuuiXwjfcO-20" style="rounded=0;orthogonalLoop=1;jettySize=auto;html=1;exitX=1;exitY=0.3333333333333333;exitDx=0;exitDy=0;exitPerimeter=0;entryX=0;entryY=0.5;entryDx=0;entryDy=0;endArrow=none;endFill=0;" edge="1" parent="1" source="4Mlx_Hhug_AuuiXwjfcO-1" target="4Mlx_Hhug_AuuiXwjfcO-6">
          <mxGeometry relative="1" as="geometry" />
        </mxCell>
        <mxCell id="4Mlx_Hhug_AuuiXwjfcO-22" style="rounded=0;orthogonalLoop=1;jettySize=auto;html=1;entryX=0;entryY=0.5;entryDx=0;entryDy=0;endArrow=none;endFill=0;" edge="1" parent="1" target="4Mlx_Hhug_AuuiXwjfcO-9">
          <mxGeometry relative="1" as="geometry">
            <mxPoint x="110" y="260" as="sourcePoint" />
          </mxGeometry>
        </mxCell>
        <mxCell id="4Mlx_Hhug_AuuiXwjfcO-24" style="rounded=0;orthogonalLoop=1;jettySize=auto;html=1;entryX=0;entryY=0.5;entryDx=0;entryDy=0;endArrow=none;endFill=0;" edge="1" parent="1" target="4Mlx_Hhug_AuuiXwjfcO-10">
          <mxGeometry relative="1" as="geometry">
            <mxPoint x="110" y="260" as="sourcePoint" />
          </mxGeometry>
        </mxCell>
        <mxCell id="4Mlx_Hhug_AuuiXwjfcO-25" style="rounded=0;orthogonalLoop=1;jettySize=auto;html=1;entryX=0;entryY=0.5;entryDx=0;entryDy=0;endArrow=none;endFill=0;" edge="1" parent="1" source="4Mlx_Hhug_AuuiXwjfcO-1" target="4Mlx_Hhug_AuuiXwjfcO-11">
          <mxGeometry relative="1" as="geometry" />
        </mxCell>
        <mxCell id="4Mlx_Hhug_AuuiXwjfcO-1" value="사용자&lt;div&gt;&lt;br&gt;&lt;/div&gt;" style="shape=umlActor;verticalLabelPosition=bottom;verticalAlign=top;html=1;" vertex="1" parent="1">
          <mxGeometry x="80" y="240" width="30" height="60" as="geometry" />
        </mxCell>
        <mxCell id="4Mlx_Hhug_AuuiXwjfcO-5" value="게시판 서비스" style="shape=umlFrame;whiteSpace=wrap;html=1;pointerEvents=0;width=100;height=20;" vertex="1" parent="1">
          <mxGeometry x="170" y="80" width="550" height="640" as="geometry" />
        </mxCell>
        <mxCell id="4Mlx_Hhug_AuuiXwjfcO-6" value="회원 가입" style="rounded=1;whiteSpace=wrap;html=1;arcSize=40;fontColor=#000000;fillColor=#ffffc0;strokeColor=#ff0000;" vertex="1" parent="1">
          <mxGeometry x="210" y="250" width="120" height="50" as="geometry" />
        </mxCell>
        <mxCell id="4Mlx_Hhug_AuuiXwjfcO-46" style="rounded=0;orthogonalLoop=1;jettySize=auto;html=1;exitX=1;exitY=0.5;exitDx=0;exitDy=0;endArrow=none;endFill=0;entryX=0;entryY=0.5;entryDx=0;entryDy=0;" edge="1" parent="1" source="4Mlx_Hhug_AuuiXwjfcO-9" target="4Mlx_Hhug_AuuiXwjfcO-43">
          <mxGeometry relative="1" as="geometry">
            <mxPoint x="810" y="230" as="targetPoint" />
          </mxGeometry>
        </mxCell>
        <mxCell id="4Mlx_Hhug_AuuiXwjfcO-9" value="게시판 보기" style="rounded=1;whiteSpace=wrap;html=1;arcSize=40;fontColor=#000000;fillColor=#ffffc0;strokeColor=#ff0000;" vertex="1" parent="1">
          <mxGeometry x="240" y="330" width="120" height="50" as="geometry" />
        </mxCell>
        <mxCell id="4Mlx_Hhug_AuuiXwjfcO-36" style="rounded=0;orthogonalLoop=1;jettySize=auto;html=1;exitX=1;exitY=0.25;exitDx=0;exitDy=0;entryX=0.5;entryY=1;entryDx=0;entryDy=0;dashed=1;" edge="1" parent="1" source="4Mlx_Hhug_AuuiXwjfcO-10" target="4Mlx_Hhug_AuuiXwjfcO-11">
          <mxGeometry relative="1" as="geometry" />
        </mxCell>
        <mxCell id="4Mlx_Hhug_AuuiXwjfcO-47" style="rounded=0;orthogonalLoop=1;jettySize=auto;html=1;exitX=1;exitY=0.5;exitDx=0;exitDy=0;entryX=0;entryY=0.5;entryDx=0;entryDy=0;endArrow=none;endFill=0;" edge="1" parent="1" target="4Mlx_Hhug_AuuiXwjfcO-43">
          <mxGeometry relative="1" as="geometry">
            <mxPoint x="380" y="478.75" as="sourcePoint" />
            <mxPoint x="810" y="231.25" as="targetPoint" />
          </mxGeometry>
        </mxCell>
        <mxCell id="4Mlx_Hhug_AuuiXwjfcO-10" value="게시글 보기" style="rounded=1;whiteSpace=wrap;html=1;arcSize=40;fontColor=#000000;fillColor=#ffffc0;strokeColor=#ff0000;" vertex="1" parent="1">
          <mxGeometry x="260" y="450" width="120" height="50" as="geometry" />
        </mxCell>
        <mxCell id="4Mlx_Hhug_AuuiXwjfcO-29" value="&amp;lt;&amp;lt;include&amp;gt;&amp;gt;" style="edgeStyle=orthogonalEdgeStyle;rounded=0;orthogonalLoop=1;jettySize=auto;html=1;exitX=1;exitY=0.5;exitDx=0;exitDy=0;entryX=0;entryY=0.5;entryDx=0;entryDy=0;dashed=1;" edge="1" parent="1" source="4Mlx_Hhug_AuuiXwjfcO-11" target="4Mlx_Hhug_AuuiXwjfcO-12">
          <mxGeometry relative="1" as="geometry">
            <mxPoint as="offset" />
          </mxGeometry>
        </mxCell>
        <mxCell id="4Mlx_Hhug_AuuiXwjfcO-11" value="회원 로그인" style="rounded=1;whiteSpace=wrap;html=1;arcSize=40;fontColor=#000000;fillColor=#ffffc0;strokeColor=#ff0000;" vertex="1" parent="1">
          <mxGeometry x="320" y="100" width="120" height="50" as="geometry" />
        </mxCell>
        <mxCell id="4Mlx_Hhug_AuuiXwjfcO-45" style="rounded=0;orthogonalLoop=1;jettySize=auto;html=1;exitX=1;exitY=0.5;exitDx=0;exitDy=0;entryX=0;entryY=0.5;entryDx=0;entryDy=0;endArrow=none;endFill=0;" edge="1" parent="1" source="4Mlx_Hhug_AuuiXwjfcO-12" target="4Mlx_Hhug_AuuiXwjfcO-43">
          <mxGeometry relative="1" as="geometry" />
        </mxCell>
        <mxCell id="4Mlx_Hhug_AuuiXwjfcO-12" value="인증" style="rounded=1;whiteSpace=wrap;html=1;arcSize=40;fontColor=#000000;fillColor=#ffffc0;strokeColor=#ff0000;" vertex="1" parent="1">
          <mxGeometry x="560" y="100" width="120" height="50" as="geometry" />
        </mxCell>
        <mxCell id="4Mlx_Hhug_AuuiXwjfcO-32" style="rounded=0;orthogonalLoop=1;jettySize=auto;html=1;exitX=0;exitY=0.5;exitDx=0;exitDy=0;entryX=1;entryY=0.5;entryDx=0;entryDy=0;dashed=1;" edge="1" parent="1" source="4Mlx_Hhug_AuuiXwjfcO-13" target="4Mlx_Hhug_AuuiXwjfcO-11">
          <mxGeometry relative="1" as="geometry" />
        </mxCell>
        <mxCell id="4Mlx_Hhug_AuuiXwjfcO-33" value="&amp;lt;&amp;lt;extend&amp;gt;&amp;gt;" style="edgeLabel;html=1;align=center;verticalAlign=middle;resizable=0;points=[];" vertex="1" connectable="0" parent="4Mlx_Hhug_AuuiXwjfcO-32">
          <mxGeometry x="-0.0998" y="-2" relative="1" as="geometry">
            <mxPoint as="offset" />
          </mxGeometry>
        </mxCell>
        <mxCell id="4Mlx_Hhug_AuuiXwjfcO-13" value="로그인 실패" style="rounded=1;whiteSpace=wrap;html=1;arcSize=40;fontColor=#000000;fillColor=#ffffc0;strokeColor=#ff0000;" vertex="1" parent="1">
          <mxGeometry x="560" y="200" width="120" height="50" as="geometry" />
        </mxCell>
        <mxCell id="4Mlx_Hhug_AuuiXwjfcO-39" style="rounded=0;orthogonalLoop=1;jettySize=auto;html=1;exitX=0;exitY=0.5;exitDx=0;exitDy=0;entryX=1;entryY=0.5;entryDx=0;entryDy=0;dashed=1;" edge="1" parent="1" source="4Mlx_Hhug_AuuiXwjfcO-14" target="4Mlx_Hhug_AuuiXwjfcO-9">
          <mxGeometry relative="1" as="geometry" />
        </mxCell>
        <mxCell id="4Mlx_Hhug_AuuiXwjfcO-14" value="게시판 정렬" style="rounded=1;whiteSpace=wrap;html=1;arcSize=40;fontColor=#000000;fillColor=#ffffc0;strokeColor=#ff0000;" vertex="1" parent="1">
          <mxGeometry x="400" y="245" width="120" height="50" as="geometry" />
        </mxCell>
        <mxCell id="4Mlx_Hhug_AuuiXwjfcO-40" style="rounded=0;orthogonalLoop=1;jettySize=auto;html=1;exitX=0;exitY=0.5;exitDx=0;exitDy=0;dashed=1;" edge="1" parent="1" source="4Mlx_Hhug_AuuiXwjfcO-15">
          <mxGeometry relative="1" as="geometry">
            <mxPoint x="360" y="350" as="targetPoint" />
          </mxGeometry>
        </mxCell>
        <mxCell id="4Mlx_Hhug_AuuiXwjfcO-15" value="게시판 검색" style="rounded=1;whiteSpace=wrap;html=1;arcSize=40;fontColor=#000000;fillColor=#ffffc0;strokeColor=#ff0000;" vertex="1" parent="1">
          <mxGeometry x="400" y="350" width="120" height="50" as="geometry" />
        </mxCell>
        <mxCell id="4Mlx_Hhug_AuuiXwjfcO-41" style="rounded=0;orthogonalLoop=1;jettySize=auto;html=1;exitX=0;exitY=0.5;exitDx=0;exitDy=0;entryX=1;entryY=0.5;entryDx=0;entryDy=0;dashed=1;" edge="1" parent="1" source="4Mlx_Hhug_AuuiXwjfcO-16" target="4Mlx_Hhug_AuuiXwjfcO-10">
          <mxGeometry relative="1" as="geometry" />
        </mxCell>
        <mxCell id="4Mlx_Hhug_AuuiXwjfcO-48" style="rounded=0;orthogonalLoop=1;jettySize=auto;html=1;exitX=1;exitY=0.5;exitDx=0;exitDy=0;entryX=0;entryY=0.5;entryDx=0;entryDy=0;endArrow=none;endFill=0;" edge="1" parent="1" source="4Mlx_Hhug_AuuiXwjfcO-16" target="4Mlx_Hhug_AuuiXwjfcO-43">
          <mxGeometry relative="1" as="geometry">
            <mxPoint x="800" y="240" as="targetPoint" />
          </mxGeometry>
        </mxCell>
        <mxCell id="4Mlx_Hhug_AuuiXwjfcO-16" value="게시글 쓰기,수정,삭제" style="rounded=1;whiteSpace=wrap;html=1;arcSize=40;fontColor=#000000;fillColor=#ffffc0;strokeColor=#ff0000;" vertex="1" parent="1">
          <mxGeometry x="450" y="490" width="120" height="50" as="geometry" />
        </mxCell>
        <mxCell id="4Mlx_Hhug_AuuiXwjfcO-42" style="rounded=0;orthogonalLoop=1;jettySize=auto;html=1;exitX=0;exitY=0.5;exitDx=0;exitDy=0;entryX=1;entryY=0.5;entryDx=0;entryDy=0;dashed=1;" edge="1" parent="1" source="4Mlx_Hhug_AuuiXwjfcO-17" target="4Mlx_Hhug_AuuiXwjfcO-10">
          <mxGeometry relative="1" as="geometry" />
        </mxCell>
        <mxCell id="4Mlx_Hhug_AuuiXwjfcO-17" value="댓글 보기,쓰기,수정,삭제" style="rounded=1;whiteSpace=wrap;html=1;arcSize=40;fontColor=#000000;fillColor=#ffffc0;strokeColor=#ff0000;" vertex="1" parent="1">
          <mxGeometry x="450" y="570" width="120" height="50" as="geometry" />
        </mxCell>
        <mxCell id="4Mlx_Hhug_AuuiXwjfcO-35" style="rounded=0;orthogonalLoop=1;jettySize=auto;html=1;exitX=0.93;exitY=0.111;exitDx=0;exitDy=0;entryX=0.5;entryY=1;entryDx=0;entryDy=0;exitPerimeter=0;dashed=1;" edge="1" parent="1" source="4Mlx_Hhug_AuuiXwjfcO-9" target="4Mlx_Hhug_AuuiXwjfcO-11">
          <mxGeometry relative="1" as="geometry" />
        </mxCell>
        <mxCell id="4Mlx_Hhug_AuuiXwjfcO-43" value="DB" style="html=1;dropTarget=0;whiteSpace=wrap;" vertex="1" parent="1">
          <mxGeometry x="790" y="167.5" width="100" height="115" as="geometry" />
        </mxCell>
        <mxCell id="4Mlx_Hhug_AuuiXwjfcO-49" style="rounded=0;orthogonalLoop=1;jettySize=auto;html=1;exitX=1;exitY=0.5;exitDx=0;exitDy=0;entryX=0;entryY=0.5;entryDx=0;entryDy=0;endArrow=none;endFill=0;" edge="1" parent="1" source="4Mlx_Hhug_AuuiXwjfcO-17" target="4Mlx_Hhug_AuuiXwjfcO-43">
          <mxGeometry relative="1" as="geometry" />
        </mxCell>
      </root>
    </mxGraphModel>
  </diagram>
</mxfile>
